<?xml version="1.0" encoding="UTF-8"?>
<svg xmlns="http://www.w3.org/2000/svg" viewBox="0 0 580.42 177">
	<style>
		.main-stop {
      stop-color: #494949;
      animation: 5s gradient-update 3s linear;
		}

		.alt-stop {
		  stop-color: #494949;
		}

		#x-line {
      animation: acceleration-try 3s linear, 5s acceleration 3s cubic-bezier(0.75, 0.25, 0.25, 0.75);
      transform-origin: 60.5px 88.5px;
      shape-rendering: crispEdges;
      fill: url(#x-bg-color);
		}

		#separator-line {
      animation: 6.5s fade-in-out 2s linear;
      opacity: 1;
		}

		@keyframes gradient-update {
      0% {
        stop-color: #494949;
      }
      
      50% {
        stop-color: #cf1920;
      }
      
      100% {
        stop-color: #494949;
      }
		}

		@keyframes acceleration-try {
      0% {
        transform: rotate(0);
      }

      25% {
        transform: rotate(38deg);
      }

      50% {
        transform: rotate(-38deg);
      }

      75% {
        transform: rotate(38deg);
      }

      100% {
        transform: rotate(0);
      }
		}

		@keyframes acceleration {
      0% {
        transform: rotate(0);
      }

      50% {
        transform: rotate(2700deg);
      }

      100% {
        transform: rotate(0);
      }
		}

		@keyframes fade-in-out {

		  0%,
      100% {
        opacity: 1
      }

      20% {
        opacity: 0
      }

      90% {
        opacity: 0
      }
		}
	</style>
  <linearGradient id="x-bg-color">
		<stop class="main-stop" offset="0%" />
		<stop class="alt-stop" offset="30%" />
		<stop class="alt-stop" offset="50%" />
		<stop class="alt-stop" offset="70%" />
		<stop class="main-stop" offset="100%" />
	</linearGradient>
	<g>
		<path d="M139.08,121.43c-1.04-1.04-1.57-2.33-1.57-3.85V43.89c0-1.52,.52-2.83,1.57-3.91,1.04-1.08,2.33-1.63,3.85-1.63h27.45c7.63,0,13.85,1.29,18.66,3.85,4.82,2.57,8.27,5.86,10.35,9.87,2.09,4.02,3.13,8.35,3.13,13s-1.04,8.99-3.13,13c-2.09,4.02-5.54,7.31-10.35,9.87-4.82,2.57-11.04,3.85-18.66,3.85h-21.91v25.77c0,1.53-.54,2.81-1.63,3.85-1.08,1.04-2.39,1.57-3.91,1.57s-2.81-.52-3.85-1.57v.02Zm30.22-39.98c8.19,0,13.95-1.57,17.28-4.7s5-7.02,5-11.68-1.67-8.55-5-11.68-9.09-4.7-17.28-4.7h-20.83v32.75h20.83Z" style="fill:#494949;" />
		<path d="M226.32,149.13c-1-1.04-1.51-2.29-1.51-3.73,0-.64,.12-1.28,.36-1.93l7.83-20.11-22.64-55.15c-.32-.8-.48-1.57-.48-2.29,0-1.52,.52-2.83,1.56-3.91,1.04-1.08,2.33-1.63,3.85-1.63,1.12,0,2.15,.32,3.07,.96,.92,.64,1.58,1.44,1.99,2.41l18.54,46,18.9-45.76c1.04-2.41,2.73-3.61,5.06-3.61,1.52,0,2.81,.54,3.85,1.63,1.04,1.08,1.57,2.39,1.57,3.91,0,.72-.12,1.41-.36,2.05l-32.87,78.99c-1.12,2.49-2.81,3.73-5.06,3.73-1.44,0-2.67-.52-3.67-1.57h0Z" style="fill:#494949;" />
		<path d="M287.07,107.71v-37.33h-8.55c-.64,0-1.18-.22-1.62-.66s-.66-.98-.66-1.63c0-.8,.36-1.48,1.08-2.05l16.38-16.01c.72-.72,1.4-1.08,2.05-1.08s1.18,.24,1.63,.72c.44,.48,.66,1.04,.66,1.69v9.63h13.61c1.36,0,2.49,.44,3.37,1.32s1.33,2.01,1.33,3.37c0,1.29-.44,2.39-1.33,3.31-.88,.92-2.01,1.38-3.37,1.38h-13.61v36.36c0,3.13,.74,5.12,2.23,5.96,1.48,.84,3.35,1.26,5.6,1.26,1.6,0,3.21-.24,4.82-.72,.32-.08,.66-.16,1.02-.24,.36-.08,.82-.12,1.38-.12,1.12,0,2.13,.42,3.01,1.26,.88,.84,1.33,1.87,1.33,3.07,0,1.85-.92,3.25-2.77,4.21-3.13,1.44-6.46,2.17-9.99,2.17-11.72,0-17.58-5.3-17.58-15.89l-.02,.02Z" style="fill:#494949;" />
		<path d="M331.01,121.43c-1.04-1.04-1.57-2.33-1.57-3.85V39.43c0-1.52,.52-2.83,1.57-3.91,1.04-1.08,2.33-1.63,3.85-1.63s2.83,.54,3.91,1.63,1.62,2.39,1.62,3.91v31.43c3.05-3.37,6.34-6.06,9.87-8.07,3.53-2.01,7.71-3.01,12.52-3.01,4.41,0,8.25,1.04,11.5,3.13,3.25,2.09,5.74,4.94,7.47,8.55s2.59,7.59,2.59,11.92v34.2c0,1.53-.54,2.81-1.63,3.85-1.08,1.04-2.39,1.57-3.91,1.57s-2.81-.52-3.85-1.57c-1.04-1.04-1.57-2.33-1.57-3.85v-32.99c0-9.79-4.42-14.69-13.25-14.69-4.01,0-7.61,1.04-10.78,3.13s-6.16,4.9-8.97,8.43v36.12c0,1.53-.54,2.81-1.62,3.85s-2.39,1.57-3.91,1.57-2.81-.52-3.85-1.57h.01Z" style="fill:#494949;" />
		<path d="M413.62,119.63c-4.66-2.65-8.25-6.4-10.78-11.26s-3.79-10.42-3.79-16.68,1.26-11.82,3.79-16.68,6.12-8.61,10.78-11.26c4.65-2.65,10.07-3.97,16.25-3.97s11.48,1.32,16.14,3.97c4.65,2.65,8.27,6.4,10.84,11.26s3.85,10.42,3.85,16.68-1.29,11.82-3.85,16.68c-2.57,4.86-6.18,8.61-10.84,11.26s-10.04,3.97-16.14,3.97-11.6-1.32-16.25-3.97Zm25.71-8.31c3.01-1.52,5.5-3.93,7.47-7.22s2.95-7.46,2.95-12.52-.98-9.11-2.95-12.4-4.46-5.68-7.47-7.16c-3.01-1.48-6.16-2.23-9.45-2.23s-6.56,.74-9.57,2.23c-3.01,1.49-5.48,3.87-7.41,7.16s-2.89,7.43-2.89,12.4,.96,9.23,2.89,12.52c1.93,3.29,4.39,5.7,7.41,7.22,3.01,1.53,6.2,2.29,9.57,2.29s6.44-.76,9.45-2.29Z" style="fill:#494949;" />
		<path d="M477.55,121.43c-1.04-1.04-1.57-2.33-1.57-3.85v-51.66c0-1.52,.52-2.83,1.57-3.91,1.04-1.08,2.33-1.63,3.85-1.63s2.83,.54,3.91,1.63,1.62,2.39,1.62,3.91v4.94c3.05-3.37,6.34-6.06,9.87-8.07,3.53-2.01,7.71-3.01,12.52-3.01,4.41,0,8.25,1.04,11.5,3.13,3.25,2.09,5.74,4.94,7.47,8.55s2.59,7.59,2.59,11.92v34.2c0,1.53-.54,2.81-1.63,3.85-1.08,1.04-2.39,1.57-3.91,1.57s-2.81-.52-3.85-1.57c-1.04-1.04-1.57-2.33-1.57-3.85v-32.99c0-9.79-4.42-14.69-13.25-14.69-4.01,0-7.61,1.04-10.78,3.13s-6.16,4.9-8.97,8.43v36.12c0,1.53-.54,2.81-1.62,3.85s-2.39,1.57-3.91,1.57-2.81-.52-3.85-1.57h.01Z" style="fill:#494949;" />
	</g>
	<path id="x-line" d="M66.9,88.5l13.86-16.77c1.76-2.13,1.46-5.28-.67-7.04-2.13-1.76-5.28-1.46-7.04,.67l-12.65,15.29-12.65-15.29c-1.76-2.13-4.91-2.43-7.04-.67s-2.43,4.91-.67,7.04l13.86,16.77-13.86,16.77c-1.76,2.13-1.46,5.28,.67,7.04,.93,.77,2.06,1.15,3.18,1.15,1.44,0,2.87-.62,3.86-1.81l12.65-15.29,12.65,15.29c.99,1.2,2.42,1.81,3.86,1.81,1.12,0,2.25-.38,3.18-1.15,2.13-1.76,2.43-4.91,.67-7.04l-13.86-16.77Z" />
	<path d="M529.92,10c22.33,0,40.49,18.16,40.49,40.49V126.51c0,22.33-18.16,40.49-40.49,40.49H50.49c-22.33,0-40.49-18.16-40.49-40.49V50.49C10,28.16,28.16,10,50.49,10h479.43m0-10H50.49C22.61,0,0,22.61,0,50.49V126.51c0,27.89,22.61,50.49,50.49,50.49h479.43c27.89,0,50.49-22.61,50.49-50.49V50.49c0-27.89-22.61-50.49-50.49-50.49h0Z" style="fill:#494949;" />
	<line id="separator-line" x1="93.91" y1="88.68" x2="117.91" y2="88.68" style="fill:none; stroke:#494949; stroke-linecap:round; stroke-miterlimit:10; stroke-width:10px;" />
</svg>
